<svg xmlns="http://www.w3.org/2000/svg" xmlns:xlink="http://www.w3.org/1999/xlink" width="1000" zoomAndPan="magnify" viewBox="0 0 750 262.499992" height="350" preserveAspectRatio="xMidYMid meet" version="1.0"><defs><clipPath id="526516cbaa"><path d="M 0.714844 0 L 749.285156 0 L 749.285156 262 L 0.714844 262 Z M 0.714844 0 " clip-rule="nonzero"/></clipPath><clipPath id="ce04eccbe3"><path d="M 0.714844 131 L 749.285156 131 L 749.285156 262 L 0.714844 262 Z M 0.714844 131 " clip-rule="nonzero"/></clipPath></defs><g clip-path="url(#526516cbaa)"><path fill="#ffffff" d="M 0.714844 0 L 749.285156 0 L 749.285156 269.488281 L 0.714844 269.488281 Z M 0.714844 0 " fill-opacity="1" fill-rule="nonzero"/><path fill="#ffffff" d="M 0.714844 0 L 749.285156 0 L 749.285156 262 L 0.714844 262 Z M 0.714844 0 " fill-opacity="1" fill-rule="nonzero"/><path fill="#ffffff" d="M 0.714844 0 L 749.285156 0 L 749.285156 262 L 0.714844 262 Z M 0.714844 0 " fill-opacity="1" fill-rule="nonzero"/></g><g clip-path="url(#ce04eccbe3)"><path fill="#5fd3fb" d="M 0.714844 131 L 749.285156 131 L 749.285156 262 L 0.714844 262 L 0.714844 131 " fill-opacity="1" fill-rule="nonzero"/></g></svg>